<?xml version="1.0" encoding="UTF-8" standalone="no"?>
<!-- Created with Inkscape (http://www.inkscape.org/) -->

<svg
   xmlns:dc="http://purl.org/dc/elements/1.1/"
   xmlns:cc="http://creativecommons.org/ns#"
   xmlns:rdf="http://www.w3.org/1999/02/22-rdf-syntax-ns#"
   xmlns:svg="http://www.w3.org/2000/svg"
   xmlns="http://www.w3.org/2000/svg"
   xmlns:sodipodi="http://sodipodi.sourceforge.net/DTD/sodipodi-0.dtd"
   xmlns:inkscape="http://www.inkscape.org/namespaces/inkscape"
   width="800"
   height="800"
   id="svg2"
   version="1.1"
   inkscape:version="0.48.3.1 r9886"
   sodipodi:docname="e-monogram_v3_post-spiro.svg">
  <defs
     id="defs4">
    <inkscape:path-effect
       is_visible="true"
       id="path-effect2991"
       effect="spiro" />
    <inkscape:path-effect
       effect="spiro"
       id="path-effect3177"
       is_visible="true" />
  </defs>
  <sodipodi:namedview
     id="base"
     pagecolor="#ffffff"
     bordercolor="#00eab5"
     borderopacity="1.0"
     inkscape:pageopacity="0.0"
     inkscape:pageshadow="2"
     inkscape:zoom="0.97625"
     inkscape:cx="485.53137"
     inkscape:cy="393.85403"
     inkscape:document-units="px"
     inkscape:current-layer="layer1"
     showgrid="false"
     showguides="true"
     inkscape:guide-bbox="true"
     inkscape:window-width="1615"
     inkscape:window-height="1026"
     inkscape:window-x="65"
     inkscape:window-y="24"
     inkscape:window-maximized="1">
    <sodipodi:guide
       orientation="1,0"
       position="100,100"
       id="guide2985" />
    <sodipodi:guide
       orientation="1,0"
       position="700,555.18566"
       id="guide2987" />
    <sodipodi:guide
       orientation="0,1"
       position="-102.43278,100"
       id="guide2989" />
    <sodipodi:guide
       orientation="0,1"
       position="-169.01408,700"
       id="guide2991" />
  </sodipodi:namedview>
  <metadata
     id="metadata7">
    <rdf:RDF>
      <cc:Work
         rdf:about="">
        <dc:format>image/svg+xml</dc:format>
        <dc:type
           rdf:resource="http://purl.org/dc/dcmitype/StillImage" />
        <dc:title></dc:title>
      </cc:Work>
    </rdf:RDF>
  </metadata>
  <g
     inkscape:label="Layer 1"
     inkscape:groupmode="layer"
     id="layer1"
     transform="matrix(1,0,0,1,0,-252.4)">
    <path
       style="fill: #00eab5; stroke: none; stroke-width: 80.5; stroke-linejoin: round; stroke-dasharray: none; stroke-dashoffset: 0; fill-opacity: 1; stroke-miterlimit: 4; stroke-opacity: 1"
       d="M 167.2 28 C 1.5 28 -132.8 162.4 -132.8 328 C -132.8 493.7 1.5 628 167.2 628 C 332.9 628 467.2 493.7 467.2 328 C 467.2 162.4 332.9 28 167.2 28 z M 167.2 53 C 293.2 53 399.3 137.7 431.9 253.3 C 403.9 311.1 363.9 363.2 315.3 405.3 C 292 425.5 266.5 443.6 238.3 456.3 C 210.2 468.9 179.2 476.2 148.4 474.4 C 125.2 473.1 102.3 466.6 82 455.4 C 135.8 426.2 184.3 387.4 224 340.9 C 250.1 310.3 272.9 275.6 281.7 236.4 C 286.1 216.9 286.8 196.3 282.7 176.7 C 278.6 157 269.5 138.3 255.8 123.7 C 242.4 109.4 224.7 99.3 205.8 94.1 C 186.9 88.9 166.8 88.5 147.5 92 C 108.9 99 74.5 121.4 46.8 149.3 C -1.9 198.4 -32 267.6 -26.4 336.5 C -23.7 371 -12.1 404.8 7.7 433.2 C 12.1 439.5 16.9 445.5 22.1 451.2 C -6.7 461.3 -36.5 468.5 -66.8 472.5 C -92.8 430.5 -107.8 381.1 -107.8 328 C -107.8 176.2 15.3 53 167.2 53 z M 168.9 108.6 C 188.3 108.6 207.7 114.5 223.2 126.1 C 237.1 136.6 247.4 151.6 253.2 168 C 259 184.4 260.5 202.2 258.5 219.5 C 254.5 254.1 237.1 285.8 216 313.6 C 178.7 362.7 129 401.9 73.8 429.4 C 68.2 432.3 62.4 434.9 56.7 437.5 C 44.6 427 34.3 414.5 26.5 400.6 C 10.1 371.6 4.7 337.1 7.9 303.9 C 11.1 270.7 22.4 238.7 37.8 209.1 C 55.5 174.7 79.7 142.2 113.5 123.5 C 130.5 114.2 149.6 108.6 168.9 108.6 z M 439.7 291.2 C 441.3 303.3 442.2 315.6 442.2 328 C 442.2 479.9 319.1 603 167.2 603 C 81.9 603 5.7 564.2 -44.8 503.3 C -13.6 496.2 16.8 486 46 473.1 C 58.7 482.8 72.8 490.8 87.8 496.5 C 131 513.1 180 510.7 223.6 495.6 C 267.3 480.5 306 453.3 339.8 421.8 C 380 384.2 413.9 339.8 439.7 291.2 z"
       transform="matrix(1.3,0,0,1.3,179.2,223.2)"
       id="path2993" />
  </g>
</svg>
