<?xml version="1.0" encoding="UTF-8" standalone="no"?>
<svg
   xmlns:dc="http://purl.org/dc/elements/1.1/"
   xmlns:cc="http://creativecommons.org/ns#"
   xmlns:rdf="http://www.w3.org/1999/02/22-rdf-syntax-ns#"
   xmlns:svg="http://www.w3.org/2000/svg"
   xmlns="http://www.w3.org/2000/svg"
   xmlns:sodipodi="http://sodipodi.sourceforge.net/DTD/sodipodi-0.dtd"
   xmlns:inkscape="http://www.inkscape.org/namespaces/inkscape"
   sodipodi:docname="reddit.svg"
   inkscape:version="1.0 (4035a4fb49, 2020-05-01)"
   id="svg8"
   version="1.1"
   viewBox="0 0 2.6458333 2.6458332"
   height="10"
   width="10">
  <defs
     id="defs2" />
  <sodipodi:namedview
     inkscape:window-maximized="1"
     inkscape:window-y="-8"
     inkscape:window-x="-8"
     inkscape:window-height="705"
     inkscape:window-width="1366"
     units="px"
     showgrid="true"
     inkscape:document-rotation="0"
     inkscape:current-layer="layer1"
     inkscape:document-units="mm"
     inkscape:cy="6.2087511"
     inkscape:cx="5.0695512"
     inkscape:zoom="31.678384"
     inkscape:pageshadow="2"
     inkscape:pageopacity="0.0"
     borderopacity="1.0"
     bordercolor="#666666"
     pagecolor="#ffffff"
     id="base">
    <inkscape:grid
       dotted="false"
       id="grid10"
       type="xygrid" />
  </sodipodi:namedview>
  <metadata
     id="metadata5">
    <rdf:RDF>
      <cc:Work
         rdf:about="">
        <dc:format>image/svg+xml</dc:format>
        <dc:type
           rdf:resource="http://purl.org/dc/dcmitype/StillImage" />
        <dc:title></dc:title>
      </cc:Work>
    </rdf:RDF>
  </metadata>
  <g
     id="layer1"
     inkscape:groupmode="layer"
     inkscape:label="Layer 1">
    <path
       transform="scale(0.26458333)"
       d="M 8 0 L 8 1 L 7 1 L 6 1 L 6 2 L 7 2 L 8 2 L 8 3 L 9 3 L 10 3 L 10 2 L 10 1 L 10 0 L 9 0 L 8 0 z M 6 2 L 5 2 L 5 3 L 6 3 L 6 2 z M 5 3 L 4 3 L 4 4 L 4 5 L 3 5 L 2 5 L 2 6 L 1 6 L 1 7 L 1 8 L 1 9 L 2 9 L 2 10 L 3 10 L 4 10 L 5 10 L 6 10 L 7 10 L 8 10 L 8 9 L 9 9 L 9 8 L 9 7 L 9 6 L 8 6 L 8 5 L 7 5 L 6 5 L 5 5 L 5 4 L 5 3 z M 3 6 L 4 6 L 4 7 L 3 7 L 3 6 z M 6 6 L 7 6 L 7 7 L 6 7 L 6 6 z M 4 8 L 5 8 L 6 8 L 6 9 L 5 9 L 4 9 L 4 8 z "
       style="fill:#ff0000;fill-rule:evenodd;stroke-width:0.999999"
       id="rect12-903" />
  </g>
</svg>
